<svg xmlns="http://www.w3.org/2000/svg">
    <symbol id="icon-arrow-down" viewBox="0 0 51 32">
       <path fill="#fff" stroke="#fff" stroke-width="6.4" stroke-miterlimit="4" stroke-linecap="butt" stroke-linejoin="miter" d="M41.925 6.771c-0.495-0.495-1.299-0.495-1.793 0l-15.768 15.799-15.799-15.799c-0.495-0.495-1.299-0.495-1.793 0s-0.495 1.299 0 1.793l16.665 16.665c0.247 0.247 0.557 0.371 0.897 0.371 0.309 0 0.649-0.124 0.897-0.371l16.665-16.665c0.526-0.495 0.526-1.299 0.031-1.793z"/> 
    </symbol>
    <symbol id="icon-book" viewBox="0 0 38 32">
       <path fill="#fff" d="M35.296 0h-7.487c-3.93 0-7.237 1.142-9.091 2.932-1.855-1.79-5.162-2.932-9.091-2.932h-7.487c-1.179 0-2.139 0.957-2.139 2.133v24.533c0 1.178 0.96 2.133 2.139 2.133h7.487c2.853 0 5.95 1.222 7.061 2.379 0.504 0.525 1.2 0.821 1.928 0.821h0.214c0.723 0 1.415-0.296 1.913-0.818 1.107-1.157 4.208-2.382 7.066-2.382h7.487c1.18 0 2.139-0.956 2.139-2.133v-24.533c0-1.177-0.959-2.133-2.139-2.133v0zM17.113 27.349c-1.901-1.093-4.515-1.749-7.487-1.749h-6.417v-22.4h6.417c4.57 0 7.487 1.895 7.487 3.2v20.949h-0zM34.226 25.6h-6.417c-2.972 0-5.586 0.656-7.487 1.749v-20.949c0-1.305 2.917-3.2 7.487-3.2h6.417v22.4z"/> 
    </symbol>
    <symbol id="icon-check-gray" viewBox="0 0 32 32">
       <path fill="#a3a6ab" d="M28.87 2.871c-1.362-0.734-2.882 0.681-3.772 1.519-2.043 1.991-3.772 4.296-5.711 6.392-2.148 2.305-4.139 4.611-6.34 6.864-1.257 1.257-2.62 2.62-3.458 4.191-1.886-1.834-3.51-3.825-5.606-5.449-1.519-1.153-4.034-1.991-3.982 0.786 0.105 3.615 3.301 7.492 5.659 9.955 0.995 1.048 2.305 2.148 3.825 2.201 1.834 0.105 3.72-2.096 4.82-3.301 1.939-2.096 3.51-4.454 5.292-6.602 2.305-2.829 4.663-5.606 6.916-8.488 1.415-1.781 5.868-6.183 2.358-8.069zM2.306 16.969c-0.052 0-0.105 0-0.21 0.053-0.21-0.053-0.367-0.107-0.576-0.213v0c0.157-0.107 0.419-0.053 0.786 0.16z"/> 
    </symbol>
    <symbol id="icon-check" viewBox="0 0 32 32">
       <path fill="#49D357" d="M28.87 2.871c-1.362-0.734-2.882 0.681-3.772 1.519-2.043 1.991-3.772 4.296-5.711 6.392-2.148 2.305-4.139 4.611-6.34 6.864-1.257 1.257-2.62 2.62-3.458 4.191-1.886-1.834-3.51-3.825-5.606-5.449-1.519-1.153-4.034-1.991-3.982 0.786 0.105 3.615 3.301 7.492 5.659 9.955 0.995 1.048 2.305 2.148 3.825 2.201 1.834 0.105 3.72-2.096 4.82-3.301 1.939-2.096 3.51-4.454 5.292-6.602 2.305-2.829 4.663-5.606 6.916-8.488 1.415-1.781 5.868-6.183 2.358-8.069zM2.306 16.969c-0.052 0-0.105 0-0.21 0.053-0.21-0.053-0.367-0.107-0.576-0.213v0c0.157-0.107 0.419-0.053 0.786 0.16z"/> 
    </symbol>
    <symbol id="icon-close" viewBox="0 0 32 32">
       <path d="M30.919 6.303l-9.696 9.697 9.696 9.696c1.442 1.443 1.442 3.78 0 5.223-0.721 0.721-1.665 1.081-2.61 1.081-0.946 0-1.891-0.36-2.611-1.081l-9.698-9.698-9.697 9.697c-0.721 0.721-1.665 1.081-2.61 1.081s-1.889-0.36-2.61-1.081c-1.442-1.442-1.442-3.779 0-5.223l9.696-9.696-9.696-9.697c-1.442-1.442-1.442-3.78 0-5.222 1.442-1.441 3.778-1.441 5.221 0l9.698 9.697 9.697-9.697c1.443-1.441 3.779-1.441 5.221 0 1.443 1.442 1.443 3.78 0.001 5.222z"/> 
    </symbol>
    <symbol id="icon-devmanlogo" viewBox="0 0 112 26">
       <!-- Generator: Sketch 42 (36781) - http://www.bohemiancoding.com/sketch --> <title>Group 16</title> <desc>Created with Sketch.</desc>  <g id="System" stroke="none" stroke-width="1" fill="none" fill-rule="evenodd"> <g id="02" transform="translate(-30.000000, -20.000000)"> <g id="Group-16" transform="translate(30.000000, 20.000000)"> <g id="Group-7"> <path d="M4,1 C4,0.44771525 4.43788135,0 5.00292933,0 L9.99707067,0 C10.5509732,0 11,0.443864822 11,1 C11,1.55228475 10.5621186,2 9.99707067,2 L5.00292933,2 C4.44902676,2 4,1.55613518 4,1 Z M18,1 C18,0.44771525 18.4378814,0 19.0029293,0 L23.9970707,0 C24.5509732,0 25,0.443864822 25,1 C25,1.55228475 24.5621186,2 23.9970707,2 L19.0029293,2 C18.4490268,2 18,1.55613518 18,1 Z M1,4 C1,3.44771525 1.44748943,3 1.99850233,3 L13.0014977,3 C13.5529553,3 14,3.44386482 14,4 C14,4.55228475 13.5525106,5 13.0014977,5 L1.99850233,5 C1.44704472,5 1,4.55613518 1,4 Z M15,4 C15,3.44771525 15.4474894,3 15.9985023,3 L27.0014977,3 C27.5529553,3 28,3.44386482 28,4 C28,4.55228475 27.5525106,5 27.0014977,5 L15.9985023,5 C15.4470447,5 15,4.55613518 15,4 Z M0,7 C0,6.44771525 0.450925395,6 0.994771168,6 L18.0052288,6 C18.5546258,6 19,6.44386482 19,7 C19,7.55228475 18.5490746,8 18.0052288,8 L0.994771168,8 C0.445374222,8 0,7.55613518 0,7 Z M20,7 C20,6.44771525 20.4463114,6 20.9975446,6 L28.0024554,6 C28.553384,6 29,6.44386482 29,7 C29,7.55228475 28.5536886,8 28.0024554,8 L20.9975446,8 C20.446616,8 20,7.55613518 20,7 Z M5,10 C5,9.44771525 5.45530558,9 5.99180311,9 L24.0081969,9 C24.5559546,9 25,9.44386482 25,10 C25,10.5522847 24.5446944,11 24.0081969,11 L5.99180311,11 C5.44404538,11 5,10.5561352 5,10 Z M26,10 C26,9.44771525 26.4426603,9 26.9989566,9 L28.0010434,9 C28.5527519,9 29,9.44386482 29,10 C29,10.5522847 28.5573397,11 28.0010434,11 L26.9989566,11 C26.4472481,11 26,10.5561352 26,10 Z M0,13 C0,12.4477153 0.448920205,12 1.00748397,12 L13.992516,12 C14.5489341,12 15,12.4438648 15,13 C15,13.5522847 14.5510798,14 13.992516,14 L1.00748397,14 C0.45106594,14 0,13.5561352 0,13 Z M16,13 C16,12.4477153 16.455761,12 17.0024733,12 L26.9975267,12 C27.5511774,12 28,12.4438648 28,13 C28,13.5522847 27.544239,14 26.9975267,14 L17.0024733,14 C16.4488226,14 16,13.5561352 16,13 Z M0,10 C0,9.44771525 0.443353176,9 1.0093689,9 L2.9906311,9 C3.54809015,9 4,9.44386482 4,10 C4,10.5522847 3.55664682,11 2.9906311,11 L1.0093689,11 C0.451909848,11 0,10.5561352 0,10 Z M17,16 C17,15.4477153 17.4463114,15 17.9975446,15 L25.0024554,15 C25.553384,15 26,15.4438648 26,16 C26,16.5522847 25.5536886,17 25.0024554,17 L17.9975446,17 C17.446616,17 17,16.5561352 17,16 Z M3,16 C3,15.4477153 3.44748943,15 3.99850233,15 L15.0014977,15 C15.5529553,15 16,15.4438648 16,16 C16,16.5522847 15.5525106,17 15.0014977,17 L3.99850233,17 C3.44704472,17 3,16.5561352 3,16 Z M7,19 C7,18.4477153 7.44994876,18 8.00684547,18 L19.9931545,18 C20.5492199,18 21,18.4438648 21,19 C21,19.5522847 20.5500512,20 19.9931545,20 L8.00684547,20 C7.45078007,20 7,19.5561352 7,19 Z M10,22 C10,21.4477153 10.4463114,21 10.9975446,21 L18.0024554,21 C18.553384,21 19,21.4438648 19,22 C19,22.5522847 18.5536886,23 18.0024554,23 L10.9975446,23 C10.446616,23 10,22.5561352 10,22 Z M13,25 C13,24.4477153 13.4426603,24 13.9989566,24 L15.0010434,24 C15.5527519,24 16,24.4438648 16,25 C16,25.5522847 15.5573397,26 15.0010434,26 L13.9989566,26 C13.4472481,26 13,25.5561352 13,25 Z" id="Combined-Shape" fill="#00A3FD"/> <path d="M44.6816406,17.7207031 L44.6816406,17.4570312 C44.3235659,17.8671896 43.9703793,18.2008451 43.6220703,18.4580078 C43.2737613,18.7151706 42.8961609,18.9104811 42.4892578,19.0439453 C42.0823547,19.1774095 41.6380232,19.2441406 41.15625,19.2441406 C40.518226,19.2441406 39.9274116,19.1090508 39.3837891,18.8388672 C38.8401666,18.5686835 38.3697937,18.1829452 37.9726562,17.6816406 C37.5755188,17.180336 37.2744151,16.5911492 37.0693359,15.9140625 C36.8642568,15.2369758 36.7617188,14.5045612 36.7617188,13.7167969 C36.7617188,12.0501219 37.1686157,10.7513067 37.9824219,9.8203125 C38.796228,8.88931826 39.8671809,8.42382812 41.1953125,8.42382812 C41.9635455,8.42382812 42.6113255,8.55566274 43.1386719,8.81933594 C43.6660183,9.08300913 44.180336,9.48827852 44.6816406,10.0351562 L44.6816406,6.09960938 C44.6816406,5.55273164 44.790689,5.13932432 45.0087891,4.859375 C45.2268891,4.57942568 45.5377584,4.43945312 45.9414062,4.43945312 C46.3450541,4.43945312 46.6559234,4.56803257 46.8740234,4.82519531 C47.0921235,5.08235806 47.2011719,5.46158604 47.2011719,5.96289062 L47.2011719,17.7207031 C47.2011719,18.2285182 47.0839855,18.6093737 46.8496094,18.8632812 C46.6152332,19.1171888 46.3125019,19.2441406 45.9414062,19.2441406 C45.5768211,19.2441406 45.2757173,19.112306 45.0380859,18.8486328 C44.8004545,18.5849596 44.6816406,18.2089868 44.6816406,17.7207031 Z M39.4375,13.8046875 C39.4375,14.5273474 39.5498036,15.1425756 39.7744141,15.6503906 C39.9990246,16.1582057 40.3066387,16.5406888 40.6972656,16.7978516 C41.0878926,17.0550143 41.5143206,17.1835938 41.9765625,17.1835938 C42.4453148,17.1835938 42.8733705,17.0615247 43.2607422,16.8173828 C43.6481139,16.573241 43.9573556,16.1988958 44.1884766,15.6943359 C44.4195975,15.1897761 44.5351562,14.5598996 44.5351562,13.8046875 C44.5351562,13.0950485 44.4195975,12.4847031 44.1884766,11.9736328 C43.9573556,11.4625625 43.6448587,11.0719415 43.2509766,10.8017578 C42.8570944,10.5315742 42.4257836,10.3964844 41.9570312,10.3964844 C41.4687476,10.3964844 41.032554,10.5348293 40.6484375,10.8115234 C40.264321,11.0882175 39.9664724,11.485349 39.7548828,12.0029297 C39.5432932,12.5205104 39.4375,13.1210903 39.4375,13.8046875 Z M57.3183594,14.4785156 L52.1035156,14.4785156 C52.1100261,15.0839874 52.2320952,15.6178362 52.4697266,16.0800781 C52.707358,16.54232 53.02311,16.8906238 53.4169922,17.125 C53.8108744,17.3593762 54.2454403,17.4765625 54.7207031,17.4765625 C55.0397151,17.4765625 55.3310534,17.439128 55.5947266,17.3642578 C55.8583998,17.2893876 56.1139311,17.1722013 56.3613281,17.0126953 C56.6087252,16.8531893 56.8365875,16.6822926 57.0449219,16.5 C57.2532562,16.3177074 57.5234358,16.0703141 57.8554688,15.7578125 C57.9921882,15.6406244 58.1874987,15.5820312 58.4414062,15.5820312 C58.7148451,15.5820312 58.9361971,15.6569003 59.1054688,15.8066406 C59.2747404,15.956381 59.359375,16.1679674 59.359375,16.4414062 C59.359375,16.6822929 59.2649749,16.9638656 59.0761719,17.2861328 C58.8873688,17.6084 58.602541,17.9176417 58.2216797,18.2138672 C57.8408184,18.5100926 57.3623076,18.7558584 56.7861328,18.9511719 C56.2099581,19.1464854 55.5475298,19.2441406 54.7988281,19.2441406 C53.08658,19.2441406 51.7552131,18.7558643 50.8046875,17.7792969 C49.8541619,16.8027295 49.3789062,15.4778729 49.3789062,13.8046875 C49.3789062,13.0169231 49.4960926,12.2861362 49.7304688,11.6123047 C49.9648449,10.9384732 50.3066384,10.3606795 50.7558594,9.87890625 C51.2050804,9.39713301 51.7584603,9.02767056 52.4160156,8.77050781 C53.073571,8.51334507 53.8027304,8.38476562 54.6035156,8.38476562 C55.6451875,8.38476562 56.5387333,8.60448999 57.2841797,9.04394531 C58.0296261,9.48340063 58.5878888,10.0514288 58.9589844,10.7480469 C59.33008,11.4446649 59.515625,12.1542933 59.515625,12.8769531 C59.515625,13.5475294 59.3235696,13.9820954 58.9394531,14.1806641 C58.5553366,14.3792328 58.0149774,14.4785156 57.3183594,14.4785156 Z M52.1035156,12.9648438 L56.9375,12.9648438 C56.8723955,12.0533809 56.6266297,11.3714215 56.2001953,10.9189453 C55.7737609,10.4664691 55.2122431,10.2402344 54.515625,10.2402344 C53.8515592,10.2402344 53.3063172,10.4697243 52.8798828,10.9287109 C52.4534484,11.3876976 52.1946619,12.0664018 52.1035156,12.9648438 Z M63.6464844,10.0644531 L65.8046875,16.1191406 L68.1289062,9.80078125 C68.3111988,9.29296621 68.4902335,8.93326929 68.6660156,8.72167969 C68.8417978,8.51009009 69.1087222,8.40429688 69.4667969,8.40429688 C69.8053402,8.40429688 70.0934233,8.51822803 70.3310547,8.74609375 C70.5686861,8.97395947 70.6875,9.23762871 70.6875,9.53710938 C70.6875,9.65429746 70.6663414,9.79101484 70.6240234,9.94726562 C70.5817055,10.1035164 70.5328779,10.2499993 70.4775391,10.3867188 C70.4222002,10.5234382 70.3587243,10.6796866 70.2871094,10.8554688 L67.7285156,17.203125 C67.6569007,17.3854176 67.5641282,17.6165351 67.4501953,17.8964844 C67.3362625,18.1764337 67.2093106,18.4156891 67.0693359,18.6142578 C66.9293613,18.8128265 66.756837,18.9674474 66.5517578,19.078125 C66.3466787,19.1888026 66.0976577,19.2441406 65.8046875,19.2441406 C65.4270814,19.2441406 65.1259777,19.1578785 64.9013672,18.9853516 C64.6767567,18.8128247 64.5107427,18.6240245 64.4033203,18.4189453 C64.2958979,18.2138662 64.1152356,17.8085968 63.8613281,17.203125 L61.3222656,10.9238281 C61.2636716,10.7675773 61.2034508,10.6113289 61.1416016,10.4550781 C61.0797523,10.2988273 61.0276695,10.1393237 60.9853516,9.9765625 C60.9430336,9.81380127 60.921875,9.67382871 60.921875,9.55664062 C60.921875,9.37434805 60.977213,9.19368579 61.0878906,9.01464844 C61.1985683,8.83561108 61.3515615,8.68912817 61.546875,8.57519531 C61.7421885,8.46126245 61.9537749,8.40429688 62.1816406,8.40429688 C62.6243512,8.40429688 62.9287101,8.53124873 63.0947266,8.78515625 C63.260743,9.03906377 63.4446604,9.4654918 63.6464844,10.0644531 Z M81.46875,14.0195312 L81.46875,17.5644531 C81.46875,18.1243518 81.3417981,18.5442694 81.0878906,18.8242188 C80.8339831,19.1041681 80.4987,19.2441406 80.0820312,19.2441406 C79.6783834,19.2441406 79.3512382,19.1041681 79.1005859,18.8242188 C78.8499336,18.5442694 78.7246094,18.1243518 78.7246094,17.5644531 L78.7246094,13.3164062 C78.7246094,12.64583 78.7018231,12.1250019 78.65625,11.7539062 C78.6106769,11.3828106 78.4869802,11.0784517 78.2851562,10.8408203 C78.0833323,10.6031889 77.7643251,10.484375 77.328125,10.484375 C76.4557248,10.484375 75.8811863,10.7838512 75.6044922,11.3828125 C75.3277981,11.9817738 75.1894531,12.8411402 75.1894531,13.9609375 L75.1894531,17.5644531 C75.1894531,18.1178413 75.0641289,18.5361314 74.8134766,18.8193359 C74.5628243,19.1025405 74.2324239,19.2441406 73.8222656,19.2441406 C73.4186178,19.2441406 73.0882174,19.1025405 72.8310547,18.8193359 C72.5738919,18.5361314 72.4453125,18.1178413 72.4453125,17.5644531 L72.4453125,9.9375 C72.4453125,9.43619541 72.5608712,9.05533984 72.7919922,8.79492188 C73.0231131,8.53450391 73.3274721,8.40429688 73.7050781,8.40429688 C74.0696633,8.40429688 74.3740222,8.52636597 74.6181641,8.77050781 C74.8623059,9.01464966 74.984375,9.35156035 74.984375,9.78125 L74.984375,10.0351562 C75.4466169,9.48176807 75.9414036,9.07487109 76.46875,8.81445312 C76.9960964,8.55403516 77.582028,8.42382812 78.2265625,8.42382812 C78.8971388,8.42382812 79.4733049,8.55729033 79.9550781,8.82421875 C80.4368514,9.09114717 80.8339828,9.49478896 81.1464844,10.0351562 C81.5957054,9.48827852 82.0774714,9.08300913 82.5917969,8.81933594 C83.1061224,8.55566274 83.6757781,8.42382812 84.3007812,8.42382812 C85.0299516,8.42382812 85.6582005,8.56705586 86.1855469,8.85351562 C86.7128933,9.13997539 87.1067695,9.55012754 87.3671875,10.0839844 C87.5950532,10.5657576 87.7089844,11.3242136 87.7089844,12.359375 L87.7089844,17.5644531 C87.7089844,18.1243518 87.5820325,18.5442694 87.328125,18.8242188 C87.0742175,19.1041681 86.7389344,19.2441406 86.3222656,19.2441406 C85.9186178,19.2441406 85.5882174,19.1025405 85.3310547,18.8193359 C85.0738919,18.5361314 84.9453125,18.1178413 84.9453125,17.5644531 L84.9453125,13.0820312 C84.9453125,12.5091117 84.9208987,12.0501319 84.8720703,11.7050781 C84.8232419,11.3600243 84.6914073,11.0703137 84.4765625,10.8359375 C84.2617177,10.6015613 83.9362001,10.484375 83.5,10.484375 C83.1484357,10.484375 82.8147802,10.5885406 82.4990234,10.796875 C82.1832667,11.0052094 81.9375009,11.2851545 81.7617188,11.6367188 C81.5664053,12.0859397 81.46875,12.8802026 81.46875,14.0195312 Z M97.0351562,17.7402344 C96.3906218,18.241539 95.7672556,18.6175118 95.1650391,18.8681641 C94.5628225,19.1188164 93.8873735,19.2441406 93.1386719,19.2441406 C92.4550747,19.2441406 91.8544948,19.1090508 91.3369141,18.8388672 C90.8193333,18.5686835 90.4205743,18.2024763 90.140625,17.7402344 C89.8606757,17.2779925 89.7207031,16.7766954 89.7207031,16.2363281 C89.7207031,15.5071578 89.9518206,14.8854192 90.4140625,14.3710938 C90.8763044,13.8567683 91.5110637,13.5117196 92.3183594,13.3359375 C92.4876311,13.2968748 92.9075487,13.2089851 93.578125,13.0722656 C94.2487013,12.9355462 94.8232398,12.8102219 95.3017578,12.6962891 C95.7802758,12.5823562 96.2994764,12.4440112 96.859375,12.28125 C96.8268228,11.5781215 96.6852226,11.0621761 96.4345703,10.7333984 C96.183918,10.4046208 95.6647175,10.2402344 94.8769531,10.2402344 C94.1998664,10.2402344 93.6904314,10.3346345 93.3486328,10.5234375 C93.0068342,10.7122405 92.7138684,10.9954408 92.4697266,11.3730469 C92.2255847,11.7506529 92.0530604,11.9996739 91.9521484,12.1201172 C91.8512365,12.2405605 91.6347673,12.3007812 91.3027344,12.3007812 C91.0032537,12.3007812 90.7444672,12.2047536 90.5263672,12.0126953 C90.3082671,11.8206371 90.1992188,11.5748713 90.1992188,11.2753906 C90.1992188,10.8066383 90.3652327,10.3509137 90.6972656,9.90820312 C91.0292985,9.46549258 91.5468715,9.10091289 92.25,8.81445312 C92.9531285,8.52799336 93.8287708,8.38476562 94.8769531,8.38476562 C96.048834,8.38476562 96.9700487,8.5231106 97.640625,8.79980469 C98.3112013,9.07649878 98.7848293,9.51431992 99.0615234,10.1132812 C99.3382175,10.7122426 99.4765625,11.5065055 99.4765625,12.4960938 C99.4765625,13.1210969 99.4749349,13.6516905 99.4716797,14.0878906 C99.4684245,14.5240907 99.4635417,15.0091119 99.4570312,15.5429688 C99.4570312,16.0442733 99.5400382,16.5667291 99.7060547,17.1103516 C99.8720711,17.6539741 99.9550781,18.0039055 99.9550781,18.1601562 C99.9550781,18.4335951 99.8264987,18.6826161 99.5693359,18.9072266 C99.3121732,19.1318371 99.020835,19.2441406 98.6953125,19.2441406 C98.4218736,19.2441406 98.151694,19.1155612 97.8847656,18.8583984 C97.6178372,18.6012357 97.3346369,18.2285181 97.0351562,17.7402344 Z M96.859375,13.8828125 C96.468748,14.0260424 95.9007199,14.1774081 95.1552734,14.3369141 C94.409827,14.4964201 93.8938816,14.6136064 93.6074219,14.6884766 C93.3209621,14.7633467 93.0475273,14.9098296 92.7871094,15.1279297 C92.5266914,15.3460297 92.3964844,15.6503887 92.3964844,16.0410156 C92.3964844,16.4446635 92.5494776,16.7880845 92.8554688,17.0712891 C93.1614599,17.3544936 93.5618465,17.4960938 94.0566406,17.4960938 C94.583987,17.4960938 95.0706358,17.380535 95.5166016,17.1494141 C95.9625673,16.9182931 96.2897125,16.6204445 96.4980469,16.2558594 C96.7389335,15.8522115 96.859375,15.1881557 96.859375,14.2636719 L96.859375,13.8828125 Z M104.603516,9.87890625 L104.603516,10.2011719 C105.072268,9.5826792 105.584958,9.12858218 106.141602,8.83886719 C106.698245,8.5491522 107.337887,8.40429688 108.060547,8.40429688 C108.763675,8.40429688 109.391924,8.55729014 109.945312,8.86328125 C110.498701,9.16927236 110.912108,9.60221074 111.185547,10.1621094 C111.361329,10.4876318 111.47526,10.8391908 111.527344,11.2167969 C111.579427,11.5944029 111.605469,12.0761689 111.605469,12.6621094 L111.605469,17.6230469 C111.605469,18.1569037 111.4834,18.5605455 111.239258,18.8339844 C110.995116,19.1074232 110.677736,19.2441406 110.287109,19.2441406 C109.889972,19.2441406 109.56771,19.1041681 109.320312,18.8242188 C109.072915,18.5442694 108.949219,18.1438828 108.949219,17.6230469 L108.949219,13.1796875 C108.949219,12.3007769 108.82715,11.6285831 108.583008,11.1630859 C108.338866,10.6975888 107.852217,10.4648438 107.123047,10.4648438 C106.647784,10.4648438 106.214846,10.6064439 105.824219,10.8896484 C105.433592,11.172853 105.147136,11.5618465 104.964844,12.0566406 C104.834635,12.453778 104.769531,13.1959581 104.769531,14.2832031 L104.769531,17.6230469 C104.769531,18.1634142 104.644207,18.5686835 104.393555,18.8388672 C104.142902,19.1090508 103.819012,19.2441406 103.421875,19.2441406 C103.037758,19.2441406 102.722006,19.1041681 102.474609,18.8242188 C102.227212,18.5442694 102.103516,18.1438828 102.103516,17.6230469 L102.103516,9.91796875 C102.103516,9.41015371 102.214192,9.03092573 102.435547,8.78027344 C102.656902,8.52962114 102.959633,8.40429688 103.34375,8.40429688 C103.578126,8.40429688 103.789713,8.45963486 103.978516,8.5703125 C104.167319,8.68099014 104.318684,8.8470041 104.432617,9.06835938 C104.54655,9.28971465 104.603516,9.55989424 104.603516,9.87890625 Z" id="devman" fill="#FFFFFF"/> </g> </g> </g> </g> 
    </symbol>
    <symbol id="icon-gemstone" viewBox="0 0 37 32">
       <path d="M35.539 10.176c0.004-0.024 0.007-0.048 0.008-0.073 0.001-0.029 0.001-0.057-0.002-0.086-0.002-0.025-0.006-0.049-0.012-0.073-0.007-0.028-0.015-0.056-0.026-0.083-0.005-0.014-0.007-0.029-0.013-0.043-0.005-0.010-0.013-0.018-0.018-0.028s-0.008-0.021-0.014-0.031l-5.926-9.481c-0.027-0.043-0.059-0.082-0.095-0.117-0.001-0.001-0.001-0.001-0.002-0.001-0.051-0.048-0.111-0.082-0.176-0.11-0.008-0.004-0.014-0.011-0.023-0.014-0.007-0.002-0.014-0.001-0.020-0.003-0.060-0.020-0.121-0.034-0.186-0.034h-22.519c-0.064 0-0.125 0.014-0.184 0.033-0.007 0.002-0.013 0.001-0.019 0.003-0.009 0.003-0.014 0.010-0.023 0.014-0.062 0.025-0.12 0.059-0.17 0.104-0.003 0.003-0.007 0.005-0.010 0.007-0.037 0.034-0.069 0.074-0.097 0.117l-5.926 9.481c-0.006 0.009-0.008 0.021-0.014 0.031s-0.014 0.018-0.018 0.028c-0.007 0.014-0.008 0.028-0.014 0.043-0.011 0.027-0.020 0.055-0.026 0.083-0.005 0.024-0.009 0.049-0.012 0.073-0.004 0.029-0.005 0.057-0.004 0.086 0.001 0.025 0.004 0.049 0.008 0.073 0.005 0.028 0.012 0.056 0.022 0.084 0.008 0.023 0.016 0.046 0.027 0.068 0.005 0.011 0.007 0.023 0.013 0.033 0.009 0.017 0.024 0.030 0.034 0.046 0.008 0.012 0.013 0.026 0.023 0.038l17.179 21.325c0.001 0.002 0.002 0.003 0.004 0.004l0.003 0.004c0.002 0.002 0.005 0.003 0.007 0.005 0.049 0.059 0.109 0.103 0.175 0.139 0.018 0.009 0.034 0.018 0.053 0.025 0.072 0.030 0.148 0.052 0.227 0.052 0.068 0 0.136-0.012 0.203-0.036 0.010-0.004 0.017-0.012 0.027-0.016 0.030-0.012 0.054-0.033 0.081-0.050 0.045-0.028 0.087-0.058 0.122-0.097 0.008-0.009 0.021-0.013 0.028-0.023l17.185-21.333c0.009-0.012 0.014-0.026 0.023-0.038 0.011-0.016 0.025-0.029 0.034-0.046 0.006-0.011 0.008-0.023 0.013-0.033 0.011-0.023 0.019-0.044 0.027-0.068 0.008-0.028 0.017-0.055 0.021-0.084zM19.019 1.186h9.161l-2.88 7.73-6.281-7.73zM24.232 9.482h-12.917l6.458-7.948 6.459 7.948zM10.206 8.968l-2.844-7.782h9.167l-6.323 7.782zM24.648 10.667l-6.978 18.729-6.844-18.729h13.822zM29.168 1.928l4.721 7.554h-7.535l2.814-7.554zM6.374 1.936l2.757 7.546h-7.473l4.716-7.546zM9.564 10.667l6.423 17.579-14.161-17.579h7.737zM19.194 28.7l6.718-18.033h7.808l-14.526 18.033z"/> 
    </symbol>
    <symbol id="icon-heartlogo" viewBox="0 0 29 26">
       <!-- Generator: Sketch 42 (36781) - http://www.bohemiancoding.com/sketch --> <title>Group 16</title> <desc>Created with Sketch.</desc>  <g id="System" stroke="none" stroke-width="1" fill="none" fill-rule="evenodd"> <g id="02" transform="translate(-30.000000, -20.000000)"> <g id="Group-16" transform="translate(30.000000, 20.000000)"> <g id="Group-7"> <path d="M4,1 C4,0.44771525 4.43788135,0 5.00292933,0 L9.99707067,0 C10.5509732,0 11,0.443864822 11,1 C11,1.55228475 10.5621186,2 9.99707067,2 L5.00292933,2 C4.44902676,2 4,1.55613518 4,1 Z M18,1 C18,0.44771525 18.4378814,0 19.0029293,0 L23.9970707,0 C24.5509732,0 25,0.443864822 25,1 C25,1.55228475 24.5621186,2 23.9970707,2 L19.0029293,2 C18.4490268,2 18,1.55613518 18,1 Z M1,4 C1,3.44771525 1.44748943,3 1.99850233,3 L13.0014977,3 C13.5529553,3 14,3.44386482 14,4 C14,4.55228475 13.5525106,5 13.0014977,5 L1.99850233,5 C1.44704472,5 1,4.55613518 1,4 Z M15,4 C15,3.44771525 15.4474894,3 15.9985023,3 L27.0014977,3 C27.5529553,3 28,3.44386482 28,4 C28,4.55228475 27.5525106,5 27.0014977,5 L15.9985023,5 C15.4470447,5 15,4.55613518 15,4 Z M0,7 C0,6.44771525 0.450925395,6 0.994771168,6 L18.0052288,6 C18.5546258,6 19,6.44386482 19,7 C19,7.55228475 18.5490746,8 18.0052288,8 L0.994771168,8 C0.445374222,8 0,7.55613518 0,7 Z M20,7 C20,6.44771525 20.4463114,6 20.9975446,6 L28.0024554,6 C28.553384,6 29,6.44386482 29,7 C29,7.55228475 28.5536886,8 28.0024554,8 L20.9975446,8 C20.446616,8 20,7.55613518 20,7 Z M5,10 C5,9.44771525 5.45530558,9 5.99180311,9 L24.0081969,9 C24.5559546,9 25,9.44386482 25,10 C25,10.5522847 24.5446944,11 24.0081969,11 L5.99180311,11 C5.44404538,11 5,10.5561352 5,10 Z M26,10 C26,9.44771525 26.4426603,9 26.9989566,9 L28.0010434,9 C28.5527519,9 29,9.44386482 29,10 C29,10.5522847 28.5573397,11 28.0010434,11 L26.9989566,11 C26.4472481,11 26,10.5561352 26,10 Z M0,13 C0,12.4477153 0.448920205,12 1.00748397,12 L13.992516,12 C14.5489341,12 15,12.4438648 15,13 C15,13.5522847 14.5510798,14 13.992516,14 L1.00748397,14 C0.45106594,14 0,13.5561352 0,13 Z M16,13 C16,12.4477153 16.455761,12 17.0024733,12 L26.9975267,12 C27.5511774,12 28,12.4438648 28,13 C28,13.5522847 27.544239,14 26.9975267,14 L17.0024733,14 C16.4488226,14 16,13.5561352 16,13 Z M0,10 C0,9.44771525 0.443353176,9 1.0093689,9 L2.9906311,9 C3.54809015,9 4,9.44386482 4,10 C4,10.5522847 3.55664682,11 2.9906311,11 L1.0093689,11 C0.451909848,11 0,10.5561352 0,10 Z M17,16 C17,15.4477153 17.4463114,15 17.9975446,15 L25.0024554,15 C25.553384,15 26,15.4438648 26,16 C26,16.5522847 25.5536886,17 25.0024554,17 L17.9975446,17 C17.446616,17 17,16.5561352 17,16 Z M3,16 C3,15.4477153 3.44748943,15 3.99850233,15 L15.0014977,15 C15.5529553,15 16,15.4438648 16,16 C16,16.5522847 15.5525106,17 15.0014977,17 L3.99850233,17 C3.44704472,17 3,16.5561352 3,16 Z M7,19 C7,18.4477153 7.44994876,18 8.00684547,18 L19.9931545,18 C20.5492199,18 21,18.4438648 21,19 C21,19.5522847 20.5500512,20 19.9931545,20 L8.00684547,20 C7.45078007,20 7,19.5561352 7,19 Z M10,22 C10,21.4477153 10.4463114,21 10.9975446,21 L18.0024554,21 C18.553384,21 19,21.4438648 19,22 C19,22.5522847 18.5536886,23 18.0024554,23 L10.9975446,23 C10.446616,23 10,22.5561352 10,22 Z M13,25 C13,24.4477153 13.4426603,24 13.9989566,24 L15.0010434,24 C15.5527519,24 16,24.4438648 16,25 C16,25.5522847 15.5573397,26 15.0010434,26 L13.9989566,26 C13.4472481,26 13,25.5561352 13,25 Z" id="Combined-Shape" fill="#00A3FD"/> </g> </g> </g> </g> 
    </symbol>
    <symbol id="icon-level" viewBox="0 0 32 32">
       <path fill="#355278" stroke="#426696" stroke-width="2.4615" stroke-miterlimit="4" stroke-linecap="butt" stroke-linejoin="miter" d="M29.799 11.52c0.003-0.019 0.005-0.037 0.006-0.056 0.001-0.022 0-0.044-0.001-0.066-0.002-0.019-0.005-0.037-0.009-0.056-0.005-0.022-0.012-0.043-0.020-0.064-0.004-0.011-0.005-0.022-0.010-0.033-0.004-0.008-0.010-0.014-0.014-0.021s-0.006-0.016-0.010-0.024l-4.558-7.293c-0.021-0.033-0.046-0.063-0.073-0.090-0-0-0.001-0-0.001-0.001-0.039-0.037-0.086-0.063-0.135-0.084-0.006-0.003-0.010-0.008-0.017-0.011-0.005-0.002-0.010-0.001-0.015-0.002-0.046-0.015-0.093-0.026-0.143-0.026h-17.322c-0.049 0-0.096 0.010-0.141 0.026-0.005 0.001-0.010 0-0.015 0.002-0.007 0.002-0.011 0.008-0.017 0.010-0.047 0.020-0.092 0.045-0.131 0.080-0.002 0.002-0.005 0.004-0.008 0.005-0.028 0.026-0.053 0.057-0.074 0.090l-4.558 7.293c-0.005 0.007-0.006 0.016-0.010 0.024s-0.010 0.014-0.014 0.021c-0.005 0.010-0.006 0.022-0.010 0.033-0.008 0.021-0.015 0.042-0.020 0.064-0.004 0.019-0.007 0.037-0.009 0.057-0.003 0.022-0.004 0.044-0.003 0.066 0.001 0.019 0.003 0.037 0.006 0.056 0.004 0.022 0.010 0.043 0.017 0.065 0.006 0.018 0.012 0.035 0.021 0.052 0.004 0.008 0.005 0.017 0.010 0.026 0.007 0.013 0.018 0.023 0.026 0.036 0.006 0.010 0.010 0.020 0.018 0.029l13.214 16.404c0.001 0.001 0.002 0.002 0.003 0.003l0.002 0.003c0.001 0.002 0.004 0.002 0.005 0.004 0.037 0.045 0.084 0.079 0.134 0.107 0.014 0.007 0.026 0.014 0.041 0.020 0.055 0.023 0.114 0.040 0.175 0.040 0.052 0 0.104-0.009 0.156-0.028 0.008-0.003 0.013-0.009 0.020-0.012 0.023-0.010 0.041-0.025 0.062-0.038 0.035-0.022 0.067-0.045 0.094-0.074 0.006-0.007 0.016-0.010 0.022-0.017l13.219-16.41c0.007-0.009 0.011-0.020 0.018-0.029 0.009-0.012 0.019-0.022 0.026-0.036 0.005-0.008 0.006-0.017 0.010-0.026 0.008-0.017 0.015-0.034 0.020-0.052 0.006-0.021 0.013-0.042 0.016-0.065zM17.092 4.604h7.047l-2.215 5.946-4.831-5.946zM21.102 10.986h-9.936l4.968-6.114 4.968 6.114zM10.312 10.591l-2.188-5.986h7.051l-4.864 5.986zM21.421 11.898l-5.368 14.407-5.264-14.407h10.632zM24.898 5.176l3.632 5.811h-5.796l2.165-5.811zM7.365 5.182l2.121 5.805h-5.749l3.628-5.805zM9.819 11.898l4.941 13.522-10.893-13.522h5.952zM17.226 25.769l5.168-13.871h6.006l-11.174 13.871z"/> 
    </symbol>
    <symbol id="icon-list-menu" viewBox="0 0 42 32">
       <path fill="#fff" d="M0 3.376c0-1.811 1.488-3.28 3.274-3.28h32.64c1.808 0 3.274 1.456 3.274 3.28 0 1.811-1.488 3.28-3.274 3.28h-32.64c-1.808 0-3.274-1.456-3.274-3.28zM0 15.945c0-1.811 1.488-3.28 3.274-3.28h32.64c1.808 0 3.274 1.456 3.274 3.28 0 1.811-1.488 3.28-3.274 3.28h-32.64c-1.808 0-3.274-1.456-3.274-3.28zM0 28.72c0-1.812 1.488-3.28 3.274-3.28h32.64c1.808 0 3.274 1.456 3.274 3.28 0 1.812-1.488 3.28-3.274 3.28h-32.64c-1.808 0-3.274-1.456-3.274-3.28z"/> 
    </symbol>
    <symbol id="icon-logo" viewBox="0 0 100 22">
       <!-- Generator: Sketch 41 (35326) - http://www.bohemiancoding.com/sketch --> <title>devman</title> <desc>Created with Sketch.</desc>  <g id="Page-1-Copy" stroke="none" stroke-width="1" fill="none" fill-rule="evenodd" font-size="28" font-family="Lato-Black, Lato" font-weight="700"> <g id="01" transform="translate(-30.000000, -21.000000)" fill="#FFFFFF"> <text id="devman"> <tspan x="30" y="42">devman</tspan> </text> </g> </g> 
    </symbol>
    <symbol id="icon-mail" viewBox="0 0 44 32">
       <path fill="#fff" d="M37.891 0h-31.774c-2.836 0-5.142 2.306-5.142 5.142v21.716c0 2.836 2.306 5.142 5.142 5.142h31.765c2.836 0 5.142-2.306 5.142-5.142v-21.707c0.009-2.836-2.297-5.151-5.133-5.151v0zM40.684 26.858c0 1.54-1.253 2.793-2.793 2.793h-31.774c-1.54 0-2.793-1.253-2.793-2.793v-21.707c0-1.54 1.253-2.793 2.793-2.793h31.765c1.54 0 2.793 1.253 2.793 2.793v21.707h0.009zM27.494 15.73l10.284-9.222c0.479-0.435 0.522-1.175 0.087-1.662-0.435-0.479-1.175-0.522-1.662-0.087l-14.182 12.729-2.767-2.471c-0.009-0.009-0.017-0.017-0.017-0.026-0.061-0.061-0.122-0.113-0.191-0.165l-11.258-10.075c-0.487-0.435-1.227-0.392-1.662 0.096s-0.392 1.227 0.096 1.662l10.406 9.301-10.362 9.701c-0.47 0.444-0.496 1.183-0.052 1.662 0.235 0.244 0.548 0.374 0.861 0.374 0.287 0 0.574-0.104 0.8-0.313l10.519-9.84 2.854 2.549c0.226 0.2 0.505 0.296 0.783 0.296s0.566-0.104 0.783-0.305l2.932-2.628 10.458 9.936c0.226 0.218 0.522 0.322 0.809 0.322 0.313 0 0.618-0.122 0.853-0.365 0.444-0.47 0.426-1.218-0.044-1.662l-10.327-9.805z"/> 
    </symbol>
    <symbol id="icon-person" viewBox="0 0 29 32">
       <path fill="#2fe564" d="M15.267 14.841c4.098 0 7.42-3.322 7.42-7.42s-3.322-7.42-7.42-7.42c-4.098 0-7.42 3.322-7.42 7.42s3.322 7.42 7.42 7.42zM15.267 18.551c-7.428 0-13.449 6.021-13.449 13.449h26.899c0-7.428-6.021-13.449-13.449-13.449z"/> 
    </symbol>
    <symbol id="icon-settings" viewBox="0 0 33 22">
       <!-- Generator: Sketch 41 (35326) - http://www.bohemiancoding.com/sketch --> <title>Group 19</title> <desc>Created with Sketch.</desc>  <g id="Page-1-Copy" stroke="none" stroke-width="1" fill="none" fill-rule="evenodd"> <g id="01" transform="translate(-937.000000, -24.000000)" fill="#FFFFFF"> <g id="Group-19" transform="translate(937.000000, 24.000000)"> <path d="M20.5893879,8.57311197 L19.0662628,8.31472467 C18.9076039,7.80248318 18.703614,7.30837414 18.4542929,6.83693065 L19.3518488,5.58125903 C19.73263,5.04635199 19.6736996,4.3165212 19.2067892,3.85414393 L17.8559223,2.503277 C17.6020681,2.24942281 17.2666179,2.10889639 16.9085022,2.10889639 C16.6274493,2.10889639 16.3599958,2.19502549 16.1333403,2.35821746 L14.8731356,3.25577334 C14.3835596,2.99738605 13.8713182,2.78432985 13.3409442,2.62567098 L13.08709,1.1206783 C12.9782954,0.472443493 12.4207228,0.001 11.7634218,0.001 L9.85498224,0.001 C9.19768122,0.001 8.64010863,0.472443493 8.53131398,1.1206783 L8.26839357,2.66193587 C7.76068519,2.82059474 7.26657614,3.02911782 6.79513265,3.28297201 L5.54852726,2.38541613 C5.32187174,2.22222415 5.04988511,2.13609505 4.76883225,2.13609505 C4.41071652,2.13609505 4.07073324,2.27662147 3.82141216,2.53047566 L2.46601212,3.88134259 C2.00363484,4.34371987 1.9401713,5.07355066 2.32095258,5.6084577 L3.22757468,6.88226175 C2.9782536,7.35823835 2.77879674,7.8523474 2.62467098,8.36458889 L1.1196783,8.61844307 C0.471443493,8.72723773 0,9.28481032 0,9.94211134 L0,11.8505509 C0,12.5078519 0.471443493,13.0654245 1.1196783,13.1742191 L2.66093587,13.4371395 C2.81959474,13.9448479 3.02811782,14.438957 3.28197201,14.9104005 L2.38894924,16.1524727 C2.00816795,16.6873798 2.06709839,17.4172106 2.53400877,17.8795878 L3.88487571,19.2304548 C4.13872989,19.484309 4.47418007,19.6248354 4.8322958,19.6248354 C5.11334865,19.6248354 5.38080217,19.5387063 5.6074577,19.3755143 L6.88126175,18.4688922 C7.33910591,18.7091471 7.81961563,18.9040708 8.31372467,19.0581966 L8.56757886,20.5813217 C8.67637351,21.2295565 9.2339461,21.701 9.89124713,21.701 L11.8042198,21.701 C12.4615208,21.701 13.0190934,21.2295565 13.127888,20.5813217 L13.3862753,19.0581966 C13.8985168,18.8995377 14.3926259,18.6955477 14.8640694,18.4462267 L16.119741,19.3437825 C16.3463965,19.5069745 16.6183831,19.5931036 16.899436,19.5931036 L16.899436,19.5931036 C17.2575517,19.5931036 17.5930019,19.4525772 17.8468561,19.198723 L19.197723,17.8478561 C19.6601003,17.3854788 19.7235638,16.655648 19.3427825,16.120741 L18.4452267,14.8605362 C18.6945477,14.3845596 18.9030708,13.8904506 19.0571966,13.3827422 L20.5803217,13.128888 C21.2285565,13.0200934 21.7,12.4625208 21.7,11.8052198 L21.7,9.89678024 C21.7090662,9.23947921 21.2376227,8.68190662 20.5893879,8.57311197 Z M20.4851264,11.8052198 C20.4851264,11.8641502 20.4443284,11.9140144 20.385398,11.9230806 L18.4814915,12.2403984 C18.2412367,12.2811964 18.050846,12.4579877 17.9919156,12.6891763 C17.8196574,13.3555436 17.556737,13.9947121 17.2031544,14.5885496 C17.0807604,14.7970727 17.0898266,15.05546 17.230353,15.2549169 L18.3500313,16.8324393 C18.3817631,16.8777704 18.37723,16.9457671 18.336432,16.9865651 L16.9855651,18.337432 C16.9538333,18.3691638 16.9221015,18.3736969 16.899436,18.3736969 C16.8722373,18.3736969 16.8495718,18.3646307 16.8314393,18.3510313 L15.25845,17.231353 C15.0635262,17.0908266 14.8006058,17.0817604 14.5920827,17.2041544 C13.9982452,17.557737 13.3590767,17.8206574 12.6927094,17.9929156 C12.4569877,18.051846 12.2801964,18.2467698 12.2439315,18.4824915 L11.9220806,20.386398 C11.9130144,20.4453284 11.8631502,20.4861264 11.8042198,20.4861264 L9.89578024,20.4861264 C9.8368498,20.4861264 9.78698559,20.4453284 9.77791936,20.386398 L9.46060163,18.4824915 C9.41980363,18.2422367 9.24301233,18.051846 9.01182369,17.9929156 C8.36358889,17.8251905 7.73801964,17.5668032 7.15324838,17.231353 C7.05805306,17.1769557 6.94925841,17.1497571 6.84499687,17.1497571 C6.72260288,17.1497571 6.59567579,17.1860219 6.49141425,17.2630848 L4.90482557,18.3918293 C4.88216002,18.4054287 4.85949446,18.4144949 4.83682891,18.4144949 C4.81869647,18.4144949 4.78243159,18.4099618 4.75069981,18.37823 L3.39983288,17.0273631 C3.35903489,16.9865651 3.35450178,16.9231015 3.38623355,16.8732373 L4.50137873,15.3093142 C4.64190516,15.1098573 4.65097138,14.8469369 4.5285774,14.6384138 C4.17499478,14.0491095 3.90300815,13.4099409 3.73074995,12.7435736 C3.6672864,12.512385 3.47689576,12.3355937 3.24117401,12.2947957 L1.32366827,11.9684117 C1.26473783,11.9593455 1.22393984,11.9094813 1.22393984,11.8505509 L1.22393984,9.94211134 C1.22393984,9.88318091 1.26473783,9.83331669 1.32366827,9.82425047 L3.21397535,9.50693273 C3.45423021,9.46613474 3.64915396,9.28934343 3.7080844,9.05362168 C3.87580948,8.38725444 4.13419678,7.74355275 4.48324629,7.14971527 C4.60564028,6.94119219 4.59204094,6.68280489 4.45151452,6.48788114 L3.32277,4.90129246 C3.29103823,4.85596135 3.29557134,4.7879647 3.33636933,4.7471667 L4.68723626,3.39629977 C4.71896804,3.364568 4.75069981,3.36003489 4.77336536,3.36003489 C4.80056403,3.36003489 4.82322958,3.36910111 4.84136202,3.38270044 L6.40528515,4.49784562 C6.60474201,4.63837205 6.86766242,4.64743827 7.0761855,4.52504429 C7.66548987,4.17146167 8.30465845,3.89947504 8.97102569,3.72721684 C9.20221433,3.66375329 9.37900564,3.47336265 9.41980363,3.2376409 L9.74618759,1.32013516 C9.75525381,1.26120472 9.80511803,1.22040673 9.86404846,1.22040673 L11.772488,1.22040673 C11.8314184,1.22040673 11.8812826,1.26120472 11.8903489,1.32013516 L12.2076666,3.21044224 C12.2484646,3.4506971 12.4252559,3.64562085 12.6609776,3.70455128 C13.3454773,3.87680948 13.9982452,4.144263 14.6056821,4.50237873 C14.8142051,4.62477272 15.0725924,4.6157065 15.2720493,4.47518007 L16.8359724,3.35096867 C16.858638,3.33736933 16.8813035,3.32830311 16.9039691,3.32830311 C16.9221015,3.32830311 16.9583664,3.33283622 16.9900982,3.364568 L18.3409651,4.71543493 C18.3817631,4.75623292 18.3862962,4.81969647 18.3545644,4.86956069 L17.2348861,6.44255003 C17.0943597,6.63747378 17.0852935,6.90039419 17.2076875,7.10891728 C17.5612701,7.70275475 17.8241905,8.34192333 17.9964487,9.00829058 C18.0553792,9.24401233 18.2503029,9.42080363 18.4860247,9.45706852 L20.3899311,9.77891936 C20.4488615,9.78798559 20.4896595,9.8378498 20.4896595,9.89678024 L20.4896595,11.8052198 L20.4851264,11.8052198 L20.4851264,11.8052198 Z M10.8522666,6.16603029 C8.26839357,6.16603029 6.1695634,8.26486046 6.1695634,10.8487334 C6.1695634,13.4326064 8.26839357,15.5314366 10.8522666,15.5314366 C13.4361395,15.5314366 15.5349697,13.4326064 15.5349697,10.8487334 C15.5349697,8.26486046 13.4361395,6.16603029 10.8522666,6.16603029 Z M10.8522666,14.3074968 C8.94382703,14.3074968 7.39350324,12.757173 7.39350324,10.8487334 C7.39350324,8.94029392 8.94382703,7.38997013 10.8522666,7.38997013 C12.7607061,7.38997013 14.3110299,8.94029392 14.3110299,10.8487334 C14.3110299,12.757173 12.7607061,14.3074968 10.8522666,14.3074968 Z" id="Combined-Shape"/> <path d="M31.5507246,10.057971 C31.47343,9.98067633 31.3478261,9.98067633 31.2705314,10.057971 L28.8067633,12.52657 L26.3381643,10.057971 C26.2608696,9.98067633 26.1352657,9.98067633 26.057971,10.057971 C25.9806763,10.1352657 25.9806763,10.2608696 26.057971,10.3381643 L28.6618357,12.942029 C28.7004831,12.9806763 28.7487923,13 28.8019324,13 C28.8502415,13 28.9033816,12.9806763 28.942029,12.942029 L31.5458937,10.3381643 C31.6280193,10.2608696 31.6280193,10.1352657 31.5507246,10.057971 Z" id="Shape" stroke="#FFFFFF"/> </g> </g> </g> 
    </symbol>
    <symbol id="icon-slack" viewBox="0 0 1792 1792">
      <path fill="#fff" d="M1583 776q62 0 103.5 40.5t41.5 101.5q0 97-93 130l-172 59 56 167q7 21 7 47 0 59-42 102t-101 43q-47 0-85.5-27t-53.5-72l-55-165-310 106 55 164q8 24 8 47 0 59-42 102t-102 43q-47 0-85-27t-53-72l-55-163-153 53q-29 9-50 9-61 0-101.5-40t-40.5-101q0-47 27.5-85t71.5-53l156-53-105-313-156 54q-26 8-48 8-60 0-101-40.5t-41-100.5q0-47 27.5-85t71.5-53l157-53-53-159q-8-24-8-47 0-60 42-102.5t102-42.5q47 0 85 27t53 72l54 160 310-105-54-160q-8-24-8-47 0-59 42.5-102t101.5-43q47 0 85.5 27.5t53.5 71.5l53 161 162-55q21-6 43-6 60 0 102.5 39.5t42.5 98.5q0 45-30 81.5t-74 51.5l-157 54 105 316 164-56q24-8 46-8zm-794 262l310-105-105-315-310 107z"/>
    </symbol>
    <symbol id="icon-star" viewBox="0 0 32 32">
       <path d="M15.828 0l4.891 9.911 10.937 1.59-7.914 7.714 1.868 10.893-9.782-5.143-9.782 5.143 1.868-10.893-7.914-7.714 10.937-1.59z"/> 
    </symbol></svg>